<svg version="1.1" viewBox="0.0 0.0 192.0 192.0" fill="none" stroke="none" stroke-linecap="square" stroke-miterlimit="10" xmlns:xlink="http://www.w3.org/1999/xlink" xmlns="http://www.w3.org/2000/svg"><clipPath id="p.0"><path d="m0 0l192.0 0l0 192.0l-192.0 0l0 -192.0z" clip-rule="nonzero"/></clipPath><g clip-path="url(#p.0)"><path fill="#000000" fill-opacity="0.0" d="m0 0l192.0 0l0 192.0l-192.0 0z" fill-rule="evenodd"/><path fill="#fed766" d="m4.7244096 34.662025l0 0c0 -16.803707 13.622097 -30.425804 30.425806 -30.425804l121.69958 0l0 0c8.069412 0 15.808334 3.205567 21.514282 8.911512c5.705948 5.705945 8.911514 13.444867 8.911514 21.514294l0 122.67594c0 16.80371 -13.622101 30.425812 -30.425797 30.425812l-121.69958 0c-16.803709 0 -30.425806 -13.622101 -30.425806 -30.425812z" fill-rule="evenodd"/><path fill="#fe4a49" d="m32.44357 187.39896l27.007874 -85.44882l27.007877 85.44882z" fill-rule="evenodd"/><path fill="#fe4a49" d="m53.047245 187.39108l53.98425 -132.53543l53.984253 132.53543z" fill-rule="evenodd"/><path fill="#fe4a49" d="m31.475065 49.28609l0 0c0 -13.437481 10.731066 -24.33071 23.968504 -24.33071l0 0c6.356842 0 12.453327 2.563406 16.948292 7.126299c4.4949646 4.562893 7.0202103 10.751503 7.0202103 17.20441l0 0c0 13.437477 -10.731064 24.330708 -23.968502 24.330708l0 0c-13.237438 0 -23.968504 -10.89323 -23.968504 -24.330708z" fill-rule="evenodd"/></g></svg>