<svg version="1.1" viewBox="0.0 0.0 480.0 480.0" fill="none" stroke="none" stroke-linecap="square" stroke-miterlimit="10" xmlns:xlink="http://www.w3.org/1999/xlink" xmlns="http://www.w3.org/2000/svg"><clipPath id="p.0"><path d="m0 0l480.0 0l0 480.0l-480.0 0l0 -480.0z" clip-rule="nonzero"/></clipPath><g clip-path="url(#p.0)"><path fill="#000000" fill-opacity="0.0" d="m0 0l480.0 0l0 480.0l-480.0 0z" fill-rule="evenodd"/><path fill="#000000" fill-opacity="0.0" d="m62.755905 121.33452l0 0c0 -32.630394 26.452156 -59.08255 59.08255 -59.08255l236.3231 0l0 0c15.669647 0 30.69754 6.2247543 41.77765 17.304878c11.080139 11.080124 17.30487 26.108002 17.30487 41.77767l0 237.33098c0 32.63037 -26.452148 59.08252 -59.08252 59.08252l-236.3231 0l0 0c-32.630394 0 -59.08255 -26.452148 -59.08255 -59.08252z" fill-rule="evenodd"/><path stroke="#000000" stroke-width="24.0" stroke-linejoin="round" stroke-linecap="butt" d="m62.755905 121.33452l0 0c0 -32.630394 26.452156 -59.08255 59.08255 -59.08255l236.3231 0l0 0c15.669647 0 30.69754 6.2247543 41.77765 17.304878c11.080139 11.080124 17.30487 26.108002 17.30487 41.77767l0 237.33098c0 32.63037 -26.452148 59.08252 -59.08252 59.08252l-236.3231 0l0 0c-32.630394 0 -59.08255 -26.452148 -59.08255 -59.08252z" fill-rule="evenodd"/><path fill="#000000" d="m116.7773 371.25757l73.03937 -132.59842l73.03938 132.59842z" fill-rule="evenodd"/><path stroke="#000000" stroke-width="3.0" stroke-linejoin="round" stroke-linecap="butt" d="m116.7773 371.25757l73.03937 -132.59842l73.03938 132.59842z" fill-rule="evenodd"/><path fill="#000000" d="m188.5324 371.37088l82.976395 -180.44095l82.97638 180.44095z" fill-rule="evenodd"/><path stroke="#000000" stroke-width="3.0" stroke-linejoin="round" stroke-linecap="butt" d="m188.5324 371.37088l82.976395 -180.44095l82.97638 180.44095z" fill-rule="evenodd"/><path fill="#000000" d="m128.85507 154.50249l0 0c0 -20.099686 17.831055 -36.3937 39.826767 -36.3937l0 0c21.995728 0 39.826782 16.294014 39.826782 36.3937l0 0c0 20.099686 -17.831055 36.393707 -39.826782 36.393707l0 0c-21.995712 0 -39.826767 -16.294022 -39.826767 -36.393707z" fill-rule="evenodd"/><path stroke="#000000" stroke-width="1.0" stroke-linejoin="round" stroke-linecap="butt" d="m128.85507 154.50249l0 0c0 -20.099686 17.831055 -36.3937 39.826767 -36.3937l0 0c21.995728 0 39.826782 16.294014 39.826782 36.3937l0 0c0 20.099686 -17.831055 36.393707 -39.826782 36.393707l0 0c-21.995712 0 -39.826767 -16.294022 -39.826767 -36.393707z" fill-rule="evenodd"/></g></svg>