<svg version="1.1" viewBox="0.0 0.0 96.0 96.0" fill="none" stroke="none" stroke-linecap="square" stroke-miterlimit="10" xmlns:xlink="http://www.w3.org/1999/xlink" xmlns="http://www.w3.org/2000/svg"><clipPath id="p.0"><path d="m0 0l96.0 0l0 96.0l-96.0 0l0 -96.0z" clip-rule="nonzero"/></clipPath><g clip-path="url(#p.0)"><path fill="#000000" fill-opacity="0.0" d="m0 0l96.0 0l0 96.0l-96.0 0z" fill-rule="evenodd"/><path fill="#f4f4f8" d="m12.818897 35.85827l0 0c0 -5.3460007 4.33379 -9.6797905 9.6797905 -9.6797905l53.396324 0c2.5672379 0 5.029335 1.0198307 6.8446426 2.835144c1.8153152 1.8153133 2.8351517 4.277405 2.8351517 6.8446465l0 38.719162c0 5.3460007 -4.3337936 9.679787 -9.679794 9.679787l-53.396324 0l0 0c-5.3460007 0 -9.6797905 -4.333786 -9.6797905 -9.679787z" fill-rule="evenodd"/><path fill="#000000" fill-opacity="0.0" d="m28.17323 19.301945l0 0c0 -2.986166 2.420765 -5.406932 5.406933 -5.406932l29.910545 0c1.4340057 0 2.8092804 0.5696573 3.8232803 1.5836544c1.0139923 1.0139971 1.5836487 2.3892698 1.5836487 3.8232775l0 21.627083c0 2.986164 -2.420761 5.406929 -5.406929 5.406929l-29.910545 0l0 0c-2.986168 0 -5.406933 -2.420765 -5.406933 -5.406929z" fill-rule="evenodd"/><path stroke="#f4f4f8" stroke-width="12.0" stroke-linejoin="round" stroke-linecap="butt" d="m28.17323 19.301945l0 0c0 -2.986166 2.420765 -5.406932 5.406933 -5.406932l29.910545 0c1.4340057 0 2.8092804 0.5696573 3.8232803 1.5836544c1.0139923 1.0139971 1.5836487 2.3892698 1.5836487 3.8232775l0 21.627083c0 2.986164 -2.420761 5.406929 -5.406929 5.406929l-29.910545 0l0 0c-2.986168 0 -5.406933 -2.420765 -5.406933 -5.406929z" fill-rule="evenodd"/></g></svg>