<svg version="1.1" viewBox="0.0 0.0 192.0 192.0" fill="none" stroke="none" stroke-linecap="square" stroke-miterlimit="10" xmlns:xlink="http://www.w3.org/1999/xlink" xmlns="http://www.w3.org/2000/svg"><clipPath id="p.0"><path d="m0 0l192.0 0l0 192.0l-192.0 0l0 -192.0z" clip-rule="nonzero"/></clipPath><g clip-path="url(#p.0)"><path fill="#000000" fill-opacity="0.0" d="m0 0l192.0 0l0 192.0l-192.0 0z" fill-rule="evenodd"/><path fill="#2ab7ca" d="m4.7244096 34.662025l0 0c0 -16.803707 13.622097 -30.425804 30.425806 -30.425804l121.69958 0l0 0c8.069412 0 15.808334 3.205567 21.514282 8.911512c5.705948 5.705945 8.911514 13.444867 8.911514 21.514294l0 122.67594c0 16.80371 -13.622101 30.425812 -30.425797 30.425812l-121.69958 0c-16.803709 0 -30.425806 -13.622101 -30.425806 -30.425812z" fill-rule="evenodd"/><path fill="#fed766" d="m56.920963 34.43739l18.3568 39.774395l-36.45745 0l18.10065 -39.774395zm0.5336304 -11.623741c-1.9352913 0 -3.2515717 0.77617836 -3.948845 2.328535l-34.621773 75.137825c-0.085380554 0.22718048 -0.12807083 0.57424927 -0.12807083 1.041214l0 0.3407669c0.085380554 0.9339371 0.43401718 1.6722565 1.0459099 2.214943c0.6118927 0.5426941 1.5297318 0.81404114 2.753519 0.81404114c1.6649189 0 2.846016 -0.77617645 3.5432892 -2.328537l9.712025 -21.278633l42.626186 0l9.818748 21.278633c0.35575104 0.70677185 0.86092377 1.274704 1.5155029 1.7038116c0.6545868 0.41648102 1.4230118 0.62472534 2.305275 0.62472534c1.0387955 0 1.9495163 -0.30921173 2.7321777 -0.92762756c0.7968826 -0.61841583 1.1953201 -1.432457 1.1953201 -2.4421234c0 -0.3155136 -0.085380554 -0.78247833 -0.25614166 -1.4009018l-34.4937 -74.77814c-0.35575104 -0.7067642 -0.86091614 -1.2683887 -1.5155029 -1.6848736c-0.654583 -0.42910576 -1.4158897 -0.6436615 -2.283924 -0.6436615z" fill-rule="evenodd"/><path fill="#fed766" d="m108.68767 27.926538l0 0c0 -0.8117733 0.6580658 -1.4698448 1.469841 -1.4698448l56.61936 0c0.38983154 0 0.76368713 0.15485764 1.0393372 0.43050766c0.27565002 0.27564812 0.43051147 0.64950943 0.43051147 1.0393372l0 5.8792057c0 0.8117752 -0.6580658 1.4698448 -1.4698486 1.4698448l-56.61936 0c-0.8117752 0 -1.469841 -0.6580696 -1.469841 -1.4698448z" fill-rule="evenodd"/><path fill="#fed766" d="m108.68767 57.346485l0 0c0 -0.8117714 0.6580658 -1.4698448 1.469841 -1.4698448l56.61936 0c0.38983154 0 0.76368713 0.15485764 1.0393372 0.43050766c0.27565002 0.27565002 0.43051147 0.64950943 0.43051147 1.0393372l0 5.8792076c0 0.8117752 -0.6580658 1.4698486 -1.4698486 1.4698486l-56.61936 0c-0.8117752 0 -1.469841 -0.6580734 -1.469841 -1.4698486z" fill-rule="evenodd"/><path fill="#fed766" d="m108.68767 86.76643l0 0c0 -0.8117752 0.6580658 -1.4698486 1.469841 -1.4698486l56.61936 0c0.38983154 0 0.76368713 0.15486145 1.0393372 0.43051147c0.27565002 0.27565002 0.43051147 0.64951324 0.43051147 1.0393372l0 5.879204c0 0.8117752 -0.6580658 1.4698486 -1.4698486 1.4698486l-56.61936 0c-0.8117752 0 -1.469841 -0.6580734 -1.469841 -1.4698486z" fill-rule="evenodd"/><path fill="#fed766" d="m28.041994 116.18638l0 0c0 -0.8117676 0.6580734 -1.469841 1.4698467 -1.469841l137.24928 0c0.38983154 0 0.76368713 0.15485382 1.0393372 0.43050385c0.27565002 0.27565002 0.43051147 0.64951324 0.43051147 1.0393372l0 5.8792114c0 0.8117676 -0.65808105 1.469841 -1.4698486 1.469841l-137.24928 0c-0.8117733 0 -1.4698467 -0.6580734 -1.4698467 -1.469841z" fill-rule="evenodd"/><path fill="#fed766" d="m28.041994 145.60632l0 0c0 -0.8117676 0.6580734 -1.4698334 1.4698467 -1.4698334l137.24928 0c0.38983154 0 0.76368713 0.15484619 1.0393372 0.43049622c0.27565002 0.27565002 0.43051147 0.6495209 0.43051147 1.0393372l0 5.8792114c0 0.8117676 -0.65808105 1.4698486 -1.4698486 1.4698486l-137.24928 0c-0.8117733 0 -1.4698467 -0.65808105 -1.4698467 -1.4698486z" fill-rule="evenodd"/><path fill="#fed766" d="m44.866142 175.02628l0 0c0 -0.8117676 0.6580734 -1.4698486 1.4698448 -1.4698486l106.00519 0c0.38983154 0 0.7637024 0.15486145 1.0393372 0.43051147c0.27565002 0.27565002 0.43051147 0.6495056 0.43051147 1.0393372l0 5.8792114c0 0.8117676 -0.6580658 1.4698486 -1.4698486 1.4698486l-106.00519 0c-0.8117714 0 -1.4698448 -0.65808105 -1.4698448 -1.4698486z" fill-rule="evenodd"/></g></svg>